<?xml version="1.0" ?><svg height="60px" version="1.1" viewBox="0 0 60 60" width="60px" xmlns="http://www.w3.org/2000/svg" xmlns:sketch="http://www.bohemiancoding.com/sketch/ns" xmlns:xlink="http://www.w3.org/1999/xlink"><title/><defs/><g fill="none" fill-rule="evenodd" id="flat" stroke="none" stroke-width="1"><g id="quora"><path d="M30,60 C46.5685433,60 60,46.5685433 60,30 C60,13.4314567 46.5685433,0 30,0 C13.4314567,0 0,13.4314567 0,30 C0,46.5685433 13.4314567,60 30,60 Z" fill="#CA4638"/><path d="M44.8408325,35.9985719 C49.7726379,24.0121457 39.9781038,14.3134478 29.3205599,13.8461538 C27.2442227,14.0831546 25.25311,14.152019 23.6024467,15.0655899 C19.6161843,16.70805 16.0111893,20.6127497 14.6170965,24.8210786 C10.8739481,36.1175195 21.3345787,48.0695135 33.6091448,45.7540606 C35.965377,49.4633464 42.3989273,49.6153846 42.3989273,49.6153846 L42.3899563,47.1765124 C42.3899563,47.1765124 38.8697372,46.1323675 38.3059101,43.9251301 C40.7527494,41.3843028 43.3677949,39.5795196 44.8408325,35.9985719 L44.8408325,35.9985719 Z M36.2636627,38.8439228 C36.1277521,38.9114457 35.9918415,38.9794157 35.8554823,39.0469386 C33.705583,35.325132 28.1987368,35.2719186 28.1987368,35.2719186 L28.1987368,38.5237482 C28.1987368,38.5237482 30.9631494,39.6573274 31.3632558,41.7093964 C31.4991664,41.8448893 31.6355255,41.9803822 31.7714361,42.1158751 C20.6626511,45.5291334 16.5113224,22.4720879 27.0746709,17.961024 C28.7486588,16.86456 31.2300365,17.4069788 32.7923356,18.1644869 C40.3041995,22.5199352 40.308685,31.6990201 36.2636627,38.8439228 L36.2636627,38.8439228 Z" fill="#FFFFFF"/></g></g></svg>